<svg width="278" height="72" viewBox="0 0 278 72" fill="none" xmlns="http://www.w3.org/2000/svg" xmlns:xlink="http://www.w3.org/1999/xlink">
<path d="M19.4851 47.8021C17.6124 48.1769 16.0207 49.1327 14.2855 49.7107C12.1729 50.4118 10.1393 51.336 8.06477 52.143C7.40348 52.3976 7.06114 52.7811 7.05528 53.5165C7.02895 56.4581 6.95873 59.3997 6.91191 62.3413C6.90313 62.905 6.91191 63.4687 6.91191 64.2671C5.09776 63.1483 3.80738 61.7261 2.40288 60.427C0.541913 58.6986 -0.0520732 56.6183 0.00352162 54.1317C0.13812 48.3887 0.0386341 42.6371 0.0854508 36.8912C0.143972 29.7604 0.240531 22.6324 0.366351 15.5015C0.386833 14.3627 0.957412 13.2953 1.92593 12.7202C4.1468 11.401 6.68075 10.7715 9.37271 9.58398C8.83139 10.7343 8.40126 11.504 8.09696 12.3196C7.02602 15.1982 7.23962 18.2228 7.16062 21.2074C7.02895 26.3352 6.97043 31.4658 6.85924 36.5936C6.75975 41.1777 11.538 45.0379 16.2606 44.1937C19.7338 43.5728 22.8471 41.9875 26.1038 40.78C28.1374 40.0274 30.1242 39.1461 32.1724 38.4393C34.1797 37.7468 36.2747 39.2977 36.0407 41.3465C35.7802 43.6243 36.1167 45.8906 35.9324 48.1741C35.7481 50.4776 34.841 52.0714 32.7108 52.9528C29.6004 54.2404 26.4696 55.4909 23.3212 56.6927C21.4543 57.4052 20.0703 56.6183 19.6607 54.6582C19.2481 52.6838 19.9942 50.6779 19.5495 48.6949C19.488 48.423 19.5027 48.134 19.4763 47.8049L19.4851 47.8021Z" fill="#C1D82F"/>
<path d="M48.8753 53.4592C48.8753 49.3672 48.9221 45.4241 48.8607 41.4838C48.8109 38.3534 49.1708 35.2143 48.7992 32.0953C48.1555 26.6871 42.2946 23.1875 36.82 25.0531C32.7938 26.4267 28.8758 28.0978 24.911 29.6373C24.004 29.9892 23.091 30.3612 22.0903 30.1752C20.8146 29.9406 19.8607 28.7416 19.8168 27.0648C19.7612 24.7842 19.8256 22.5007 19.9046 20.2201C19.9923 17.6819 21.4934 16.1396 23.7933 15.2268C26.7603 14.0478 29.7331 12.8775 32.7089 11.7157C34.4265 11.0461 36.542 12.3825 36.2963 14.1766C36.0329 16.0938 36.5859 17.9738 36.2494 19.8681C36.0563 20.9498 36.7966 20.6436 37.3233 20.4376C39.7987 19.4732 42.2595 18.4746 44.7262 17.4931C45.5338 17.1726 46.3618 16.9036 47.1548 16.5574C49.1182 15.7104 49.3669 15.2897 49.2323 13.2581C49.0304 10.2249 49.1562 7.19171 49.244 4.15567C49.2732 3.16273 49.1328 2.16693 49.0567 1.17399C49.0216 0.710431 49.0333 0.304099 49.6595 0.261176C50.9674 0.17247 52.2754 -0.0135269 53.5804 0.000780598C55.178 0.0179495 55.9095 0.899289 55.8949 2.47025C55.8042 12.5999 55.7281 22.7296 55.6403 32.8593C55.614 35.9011 55.6696 38.9485 55.5086 41.9846C55.4355 43.3781 55.1487 44.8146 54.388 46.0708C52.9279 48.483 51.2513 50.7551 49.519 52.9842C49.3844 53.1587 49.1474 53.256 48.8695 53.4506L48.8753 53.4592Z" fill="#C1D82F"/>
<path d="M38.2374 63.9203C36.0984 66.2209 33.6347 68.1009 31.051 69.8149C29.9186 70.5675 28.9911 71.5891 27.4959 71.8867C25.3247 72.3216 23.3965 71.3745 21.3453 71.1942C21.1551 71.177 20.8742 70.9338 20.8332 70.7535C20.7484 70.3586 21.1756 70.3844 21.4126 70.29C23.2033 69.586 24.9941 68.8878 26.7936 68.2097C30.6033 66.7703 34.4189 65.3453 38.2344 63.9146L38.2374 63.9203Z" fill="#C1D82F"/>
<path d="M90.8058 30.8894C90.6994 29.9099 90.2512 29.1472 89.4612 28.6013C88.6788 28.0555 87.6608 27.7826 86.4074 27.7826C85.5262 27.7826 84.7704 27.9134 84.1399 28.1751C83.5094 28.4368 83.027 28.792 82.6928 29.2407C82.3585 29.6893 82.1876 30.2015 82.18 30.7773C82.18 31.2558 82.2901 31.6708 82.5104 32.0223C82.7383 32.3737 83.046 32.6728 83.4334 32.9195C83.8208 33.1588 84.25 33.3607 84.721 33.5252C85.192 33.6897 85.6668 33.828 86.1453 33.9402L88.3331 34.4786C89.2143 34.6805 90.0613 34.9534 90.8741 35.2974C91.6946 35.6413 92.4276 36.075 93.0733 36.5984C93.7266 37.1218 94.2432 37.7537 94.623 38.494C95.0028 39.2342 95.1927 40.1016 95.1927 41.0961C95.1927 42.442 94.8433 43.6272 94.1444 44.6516C93.4455 45.6685 92.4352 46.4649 91.1134 47.0406C89.7992 47.6089 88.2078 47.8931 86.3391 47.8931C84.5235 47.8931 82.9472 47.6164 81.6103 47.0631C80.2809 46.5097 79.2402 45.7022 78.4881 44.6404C77.7437 43.5786 77.341 42.285 77.2803 40.7596H81.4393C81.5001 41.5597 81.7508 42.2252 82.1914 42.7561C82.632 43.287 83.2055 43.6833 83.912 43.945C84.6261 44.2067 85.4237 44.3376 86.3049 44.3376C87.224 44.3376 88.0293 44.203 88.7205 43.9338C89.4194 43.6571 89.9664 43.2758 90.3614 42.7897C90.7564 42.2962 90.9577 41.7205 90.9653 41.0624C90.9577 40.4643 90.7792 39.9707 90.4298 39.5819C90.0803 39.1856 89.5903 38.8566 88.9598 38.5949C88.3369 38.3257 87.6077 38.0864 86.7721 37.8771L84.1171 37.2041C82.1952 36.7181 80.6759 35.9815 79.5592 34.9945C78.4501 34 77.8956 32.6803 77.8956 31.0352C77.8956 29.6818 78.2678 28.4967 79.0123 27.4797C79.7643 26.4628 80.786 25.6739 82.0774 25.1131C83.3688 24.5448 84.8312 24.2607 86.4644 24.2607C88.1204 24.2607 89.5714 24.5448 90.8172 25.1131C92.0706 25.6739 93.0543 26.4553 93.7684 27.4573C94.4825 28.4518 94.8509 29.5958 94.8737 30.8894H90.8058Z" fill="#161925" fill-opacity="0.75"/>
<path d="M103.816 47.8931C102.707 47.8931 101.708 47.6986 100.819 47.3098C99.9377 46.9135 99.2388 46.3303 98.7222 45.5601C98.2133 44.7899 97.9588 43.8403 97.9588 42.7112C97.9588 41.7392 98.1411 40.9353 98.5057 40.2997C98.8704 39.6642 99.3679 39.1557 99.9984 38.7744C100.629 38.393 101.339 38.1051 102.129 37.9107C102.927 37.7088 103.751 37.563 104.602 37.4733C105.627 37.3686 106.459 37.2751 107.097 37.1929C107.735 37.1032 108.199 36.9686 108.487 36.7891C108.784 36.6022 108.932 36.3143 108.932 35.9255V35.8582C108.932 35.0132 108.677 34.3589 108.168 33.8953C107.659 33.4317 106.926 33.1999 105.969 33.1999C104.959 33.1999 104.158 33.4168 103.565 33.8505C102.98 34.2842 102.585 34.7964 102.38 35.3871L98.5285 34.8487C98.8324 33.8019 99.3338 32.927 100.033 32.2241C100.732 31.5138 101.586 30.9829 102.596 30.6315C103.607 30.2725 104.723 30.0931 105.946 30.0931C106.79 30.0931 107.629 30.1903 108.465 30.3847C109.3 30.5791 110.064 30.9006 110.755 31.3493C111.446 31.7905 112.001 32.3924 112.419 33.1551C112.844 33.9178 113.057 34.8711 113.057 36.0152V47.5454H109.091V45.1788H108.955C108.704 45.6573 108.351 46.106 107.895 46.5247C107.447 46.936 106.881 47.2687 106.197 47.5229C105.521 47.7697 104.727 47.8931 103.816 47.8931ZM104.887 44.9096C105.715 44.9096 106.433 44.7488 107.04 44.4273C107.648 44.0983 108.115 43.6646 108.442 43.1262C108.776 42.5878 108.943 42.0009 108.943 41.3653V39.3352C108.814 39.4398 108.594 39.5371 108.282 39.6268C107.979 39.7165 107.637 39.795 107.257 39.8623C106.877 39.9296 106.501 39.9894 106.129 40.0418C105.757 40.0941 105.434 40.139 105.16 40.1764C104.545 40.2586 103.994 40.3932 103.508 40.5802C103.022 40.7671 102.638 41.0288 102.357 41.3653C102.076 41.6943 101.936 42.1205 101.936 42.6439C101.936 43.3917 102.213 43.9562 102.767 44.3376C103.322 44.7189 104.028 44.9096 104.887 44.9096Z" fill="#161925" fill-opacity="0.75"/>
<path d="M126.07 30.3174V33.4579H115.723V30.3174H126.07ZM118.31 47.5454V28.6911C118.31 27.5321 118.553 26.5675 119.039 25.7973C119.533 25.0271 120.194 24.4514 121.022 24.07C121.85 23.6887 122.769 23.498 123.779 23.498C124.493 23.498 125.128 23.5541 125.682 23.6662C126.237 23.7784 126.647 23.8794 126.913 23.9691L126.092 27.1096C125.918 27.0573 125.697 27.0049 125.431 26.9526C125.166 26.8927 124.869 26.8628 124.543 26.8628C123.775 26.8628 123.232 27.046 122.913 27.4124C122.602 27.7713 122.446 28.2873 122.446 28.9603V47.5454H118.31Z" fill="#161925" fill-opacity="0.75"/>
<path d="M136.39 47.8818C134.635 47.8818 133.12 47.5229 131.844 46.8051C130.575 46.0798 129.599 45.0554 128.915 43.7319C128.232 42.4009 127.89 40.8344 127.89 39.0323C127.89 37.2602 128.232 35.7049 128.915 34.3664C129.607 33.0205 130.571 31.9736 131.81 31.2259C133.048 30.4707 134.503 30.0931 136.174 30.0931C137.252 30.0931 138.27 30.2651 139.228 30.609C140.192 30.9455 141.043 31.4689 141.78 32.1793C142.524 32.8896 143.109 33.7944 143.535 34.8936C143.96 35.9853 144.173 37.2864 144.173 38.7968V40.0418H129.827V37.305H140.219C140.211 36.5274 140.04 35.8357 139.706 35.2301C139.372 34.6169 138.905 34.1346 138.305 33.7832C137.712 33.4317 137.021 33.256 136.231 33.256C135.388 33.256 134.647 33.4579 134.009 33.8617C133.371 34.258 132.873 34.7814 132.516 35.432C132.167 36.075 131.988 36.7816 131.981 37.5518V39.9408C131.981 40.9428 132.167 41.8027 132.539 42.5205C132.911 43.2309 133.431 43.7767 134.1 44.1581C134.768 44.532 135.551 44.7189 136.447 44.7189C137.047 44.7189 137.591 44.6366 138.077 44.4721C138.563 44.3002 138.984 44.0497 139.341 43.7207C139.699 43.3917 139.968 42.9841 140.151 42.4981L144.002 42.9243C143.759 43.9263 143.295 44.8012 142.612 45.5489C141.936 46.2892 141.07 46.8649 140.014 47.2762C138.958 47.68 137.75 47.8818 136.39 47.8818Z" fill="#161925" fill-opacity="0.75"/>
<path d="M147.845 47.5454V24.5748H156.596C158.389 24.5748 159.893 24.9038 161.108 25.5618C162.331 26.2198 163.254 27.1245 163.877 28.2761C164.508 29.4201 164.823 30.7212 164.823 32.1793C164.823 33.6523 164.508 34.9609 163.877 36.1049C163.247 37.249 162.316 38.15 161.085 38.808C159.855 39.4585 158.339 39.7838 156.539 39.7838H150.739V36.3629H155.969C157.018 36.3629 157.876 36.1834 158.544 35.8245C159.213 35.4656 159.707 34.9721 160.026 34.344C160.352 33.7159 160.516 32.9943 160.516 32.1793C160.516 31.3642 160.352 30.6464 160.026 30.0258C159.707 29.4052 159.209 28.9229 158.533 28.5789C157.865 28.2275 157.002 28.0517 155.946 28.0517H152.072V47.5454H147.845Z" fill="#161925" fill-opacity="0.75"/>
<path d="M175.696 47.8818C173.987 47.8818 172.506 47.5117 171.252 46.7714C169.999 46.0312 169.027 44.9956 168.335 43.6646C167.652 42.3336 167.31 40.7783 167.31 38.9987C167.31 37.2191 167.652 35.66 168.335 34.3216C169.027 32.9831 169.999 31.9437 171.252 31.2035C172.506 30.4632 173.987 30.0931 175.696 30.0931C177.405 30.0931 178.887 30.4632 180.14 31.2035C181.394 31.9437 182.362 32.9831 183.046 34.3216C183.737 35.66 184.083 37.2191 184.083 38.9987C184.083 40.7783 183.737 42.3336 183.046 43.6646C182.362 44.9956 181.394 46.0312 180.14 46.7714C178.887 47.5117 177.405 47.8818 175.696 47.8818ZM175.719 44.6292C176.646 44.6292 177.421 44.3787 178.044 43.8777C178.666 43.3692 179.13 42.6888 179.434 41.8364C179.745 40.9839 179.901 40.0343 179.901 38.9875C179.901 37.9331 179.745 36.9798 179.434 36.1274C179.13 35.2675 178.666 34.5833 178.044 34.0748C177.421 33.5663 176.646 33.3121 175.719 33.3121C174.769 33.3121 173.979 33.5663 173.349 34.0748C172.726 34.5833 172.259 35.2675 171.947 36.1274C171.644 36.9798 171.492 37.9331 171.492 38.9875C171.492 40.0343 171.644 40.9839 171.947 41.8364C172.259 42.6888 172.726 43.3692 173.349 43.8777C173.979 44.3787 174.769 44.6292 175.719 44.6292Z" fill="#161925" fill-opacity="0.75"/>
<path d="M187.584 47.5454V30.3174H191.709V47.5454H187.584ZM189.658 27.8723C189.004 27.8723 188.442 27.6592 187.971 27.233C187.5 26.7993 187.265 26.2796 187.265 25.6739C187.265 25.0608 187.5 24.5411 187.971 24.1149C188.442 23.6812 189.004 23.4644 189.658 23.4644C190.319 23.4644 190.881 23.6812 191.344 24.1149C191.815 24.5411 192.05 25.0608 192.05 25.6739C192.05 26.2796 191.815 26.7993 191.344 27.233C190.881 27.6592 190.319 27.8723 189.658 27.8723Z" fill="#161925" fill-opacity="0.75"/>
<path d="M200.075 37.4509V47.5454H195.95V30.3174H199.893V33.2448H200.098C200.501 32.2802 201.143 31.5138 202.024 30.9455C202.912 30.3772 204.01 30.0931 205.317 30.0931C206.525 30.0931 207.577 30.3473 208.473 30.8558C209.377 31.3642 210.076 32.1008 210.57 33.0654C211.071 34.0299 211.318 35.2002 211.31 36.576V47.5454H207.185V37.2041C207.185 36.0526 206.882 35.1516 206.274 34.501C205.674 33.8505 204.842 33.5252 203.778 33.5252C203.057 33.5252 202.415 33.6822 201.853 33.9963C201.298 34.3029 200.861 34.7478 200.542 35.331C200.231 35.9142 200.075 36.6209 200.075 37.4509Z" fill="#161925" fill-opacity="0.75"/>
<path d="M224.243 30.3174V33.4579H214.182V30.3174H224.243ZM216.666 26.1899H220.791V42.3635C220.791 42.9094 220.874 43.3281 221.041 43.6197C221.216 43.9039 221.444 44.0983 221.725 44.203C222.006 44.3076 222.318 44.36 222.66 44.36C222.918 44.36 223.153 44.3413 223.366 44.3039C223.586 44.2665 223.753 44.2329 223.867 44.203L224.562 47.3771C224.342 47.4519 224.027 47.5341 223.617 47.6239C223.214 47.7136 222.72 47.7659 222.135 47.7809C221.102 47.8108 220.172 47.6575 219.344 47.321C218.516 46.9771 217.859 46.4462 217.372 45.7283C216.894 45.0105 216.658 44.1132 216.666 43.0365V26.1899Z" fill="#161925" fill-opacity="0.75"/>
<path d="M240.062 24.5748V47.5454H235.835V24.5748H240.062Z" fill="#161925" fill-opacity="0.75"/>
<path d="M243.614 28.063V24.5748H262.233V28.063H255.02V47.5454H250.827V28.063H243.614Z" fill="#161925" fill-opacity="0.75"/>
</svg>
